<svg id="Layer_1" data-name="Layer 1" xmlns="http://www.w3.org/2000/svg" viewBox="0 0 612 792"><defs><style>.cls-1{fill:#fefefe;}</style></defs><title>XET_logo_black</title><path class="cls-1" d="M557,503H58V291H557ZM292.8,453V404.9h94.12V376H292.7V338.21H434.57V481.75h38.52V337.92h55.67V309h-5.64c-99.47,0-198.95.13-298.43-.22-8.88,0-14.41,2.2-19.37,9.75-9.35,14.24-19.88,27.71-30.19,41.88-1.6-2.16-2.88-3.86-4.13-5.58Q155.48,333.41,139.92,312c-.9-1.22-2.36-2.86-3.58-2.88-14.24-.2-28.49-.13-43.53-.13l59.36,83L86.75,482c14.6,0,28.26-.12,41.91.09,3.26.05,5.07-1,6.89-3.62,12.89-18.17,25.93-36.24,39.17-54.68,1.13,1.47,2.16,2.73,3.11,4.06,12,16.77,24.06,33.51,36,50.37,1.88,2.66,3.76,3.88,7.21,3.87q86.24-.19,172.46-.1c1.44,0,2.88-.13,4.26-.2V453Z"/><path d="M292.8,453H397.72v28.81c-1.38.07-2.82.2-4.26.2q-86.23,0-172.46.1c-3.45,0-5.33-1.21-7.21-3.87-11.9-16.86-23.95-33.6-36-50.37-1-1.33-2-2.59-3.11-4.06-13.24,18.44-26.28,36.51-39.17,54.68-1.82,2.57-3.63,3.67-6.89,3.62-13.65-.21-27.31-.09-41.91-.09l65.42-90L92.81,309c15,0,29.29-.07,43.53.13,1.22,0,2.68,1.66,3.58,2.88q15.62,21.35,31.08,42.82c1.25,1.72,2.53,3.42,4.13,5.58,10.31-14.17,20.84-27.64,30.19-41.88,5-7.55,10.49-9.78,19.37-9.75,99.48.35,199,.22,298.43.22h5.64v28.92H473.09V481.75H434.57V338.21H292.7V376h94.22V404.9H292.8Zm-39-47.2h37.93V377.72h-38v-63.9c-19.05,26.53-37.52,52.27-56,78l56.1,77.54Z"/><path class="cls-1" d="M253.84,405.78v63.55l-56.1-77.54c18.46-25.7,36.93-51.44,56-78v63.9h38v28.06Z"/></svg>